<?xml version="1.0" standalone="no"?>
<!DOCTYPE svg PUBLIC "-//W3C//DTD SVG 20010904//EN"
 "http://www.w3.org/TR/2001/REC-SVG-20010904/DTD/svg10.dtd">
<svg version="1.0" xmlns="http://www.w3.org/2000/svg"
 width="285.000000pt" height="285.000000pt" viewBox="0 0 285.000000 285.000000"
 preserveAspectRatio="xMidYMid meet">
<metadata>
Created by potrace 1.11, written by Peter Selinger 2001-2013
</metadata>
<g transform="translate(0.000000,285.000000) scale(0.100000,-0.100000)"
fill="#000000" stroke="none">
<path d="M1070 1440 l0 -1410 355 0 355 0 0 1410 0 1410 -355 0 -355 0 0
-1410z"/>
<path d="M1870 2140 l0 -710 360 0 360 0 0 710 0 710 -360 0 -360 0 0 -710z"/>
<path d="M260 735 l0 -705 355 0 355 0 0 705 0 705 -355 0 -355 0 0 -705z"/>
</g>
</svg>
